<svg width="37" height="38" fill="none" id="svg378967886_935">
              <path
                d="M0 .5h37v37H0V.5Z"
                fill="url(#svg378967886_935_a)"
              ></path>
              <path
                fill-rule="evenodd"
                clip-rule="evenodd"
                d="M21.372 9.7a1.42 1.42 0 0 0 1.42 1.418h2.673v2.675a1.42 1.42 0 0 0 1.42 1.418h5.352v6.112h-5.353a1.42 1.42 0 0 0-1.419 1.42v2.673h-2.674a1.42 1.42 0 0 0-1.419 1.42v5.352h-6.111v-5.353a1.42 1.42 0 0 0-1.42-1.419h-2.673v-2.674a1.42 1.42 0 0 0-1.42-1.419H4.397v-6.112H9.75c.783 0 1.418-.635 1.418-1.418v-2.675h2.675c.783 0 1.418-.635 1.418-1.418V4.347h6.112V9.7Zm-3.818 1.375h1.524v1.79a4.64 4.64 0 0 0 4.64 4.64h1.79v1.524h-1.79a4.64 4.64 0 0 0-4.64 4.64v1.79h-1.524v-1.79a4.64 4.64 0 0 0-4.64-4.64h-1.79v-1.524h1.79a4.64 4.64 0 0 0 4.64-4.64v-1.79Z"
                fill="#0E0F0F"
              ></path>
              <defs>
                <linearGradient
                  id="svg378967886_935_a"
                  x1="5.844"
                  y1="6.761"
                  x2="30.704"
                  y2="9.895"
                  gradientUnits="userSpaceOnUse"
                >
                  <stop stop-color="#D5FE52"></stop>
                  <stop offset="1" stop-color="#82F9D9"></stop>
                </linearGradient>
              </defs>
            </svg>